<svg width="25" height="25" viewBox="0 0 25 25" fill="none" xmlns="http://www.w3.org/2000/svg">
<rect width="25" height="25" fill="white" style="mix-blend-mode:multiply"/>
<path d="M21.875 4.6875H6.25C5.3125 4.6875 4.6875 5.3125 4.6875 6.25V17.1875C4.6875 18.125 5.3125 18.75 6.25 18.75H12.5V17.1875H6.25V6.25H21.875V17.1875H16.25L12.5 22.5L13.75 23.4375L17.0312 18.75H21.875C22.8125 18.75 23.4375 18.125 23.4375 17.1875V6.25C23.4375 5.3125 22.8125 4.6875 21.875 4.6875Z" fill="#161616"/>
<path d="M3.125 14.0625H1.5625V3.90625C1.5625 2.57812 2.57812 1.5625 3.90625 1.5625H14.0625V3.125H3.90625C3.4375 3.125 3.125 3.4375 3.125 3.90625V14.0625Z" fill="#161616"/>
</svg>
