<svg width="22" height="20" viewBox="0 0 22 20" fill="none" xmlns="http://www.w3.org/2000/svg">
<path d="M10.9922 0C4.90721 0 0 3.86098 0 8.54825C0 11.5907 2.0414 14.2548 5.1035 15.7761L4.0671 19.5831C4.04755 19.6401 4.04455 19.7014 4.05842 19.76C4.07228 19.8187 4.10247 19.8723 4.14561 19.9151C4.20851 19.9696 4.28944 19.9998 4.37331 20C4.44284 19.9945 4.50881 19.9675 4.56174 19.9228L9.02141 16.9653C9.67972 17.0547 10.3433 17.101 11.0079 17.1042C17.0849 17.1042 22 13.2433 22 8.54825C22 3.85326 17.0692 0 10.9922 0Z" fill="#392020"/>
</svg>
