<svg width="25" height="25" viewBox="0 0 25 25" fill="none" xmlns="http://www.w3.org/2000/svg">
<rect width="25" height="25" fill="white" style="mix-blend-mode:multiply"/>
<path d="M20.3125 12.9577V10.9375H18.75V13.2812C18.75 13.4884 18.8324 13.6871 18.9789 13.8336L21.0938 15.9485V17.1875H3.90625V15.9485L6.02109 13.8336C6.16762 13.6871 6.24996 13.4884 6.25 13.2812V10.1562C6.24799 9.0585 6.53567 7.97966 7.08399 7.02866C7.63231 6.07766 8.42186 5.28818 9.3729 4.73995C10.3239 4.19171 11.4028 3.90412 12.5006 3.90623C13.5983 3.90834 14.6761 4.20007 15.625 4.75195V3.00523C14.8813 2.67598 14.0903 2.46613 13.2812 2.38344V0.78125H11.7188V2.38344C9.79272 2.5794 8.00775 3.48256 6.70901 4.91827C5.41027 6.35399 4.69001 8.22027 4.6875 10.1562V12.9577L2.57266 15.0727C2.42613 15.2191 2.34379 15.4178 2.34375 15.625V17.9688C2.34375 18.176 2.42606 18.3747 2.57257 18.5212C2.71909 18.6677 2.9178 18.75 3.125 18.75H8.59375V19.5312C8.59375 20.5673 9.0053 21.5608 9.73786 22.2934C10.4704 23.0259 11.464 23.4375 12.5 23.4375C13.536 23.4375 14.5296 23.0259 15.2621 22.2934C15.9947 21.5608 16.4062 20.5673 16.4062 19.5312V18.75H21.875C22.0822 18.75 22.2809 18.6677 22.4274 18.5212C22.5739 18.3747 22.6562 18.176 22.6562 17.9688V15.625C22.6562 15.4178 22.5739 15.2191 22.4273 15.0727L20.3125 12.9577ZM14.8438 19.5312C14.8438 20.1529 14.5968 20.749 14.1573 21.1885C13.7177 21.6281 13.1216 21.875 12.5 21.875C11.8784 21.875 11.2823 21.6281 10.8427 21.1885C10.4032 20.749 10.1562 20.1529 10.1562 19.5312V18.75H14.8438V19.5312Z" fill="#161616"/>
<path d="M20.3125 9.375C22.0384 9.375 23.4375 7.97589 23.4375 6.25C23.4375 4.52411 22.0384 3.125 20.3125 3.125C18.5866 3.125 17.1875 4.52411 17.1875 6.25C17.1875 7.97589 18.5866 9.375 20.3125 9.375Z" fill="#161616"/>
</svg>
