<svg width="14" height="14" viewBox="0 0 14 14" fill="none" xmlns="http://www.w3.org/2000/svg">
<path d="M13.7172 1.69284C13.8734 1.53663 13.8734 1.28337 13.7172 1.12716L12.8728 0.282843C12.7166 0.126633 12.4634 0.126633 12.3072 0.282843L7 5.59L1.69284 0.282843C1.53663 0.126633 1.28337 0.126633 1.12716 0.282843L0.282843 1.12716C0.126633 1.28337 0.126633 1.53663 0.282843 1.69284L5.59 7L0.282843 12.3072C0.126633 12.4634 0.126633 12.7166 0.282843 12.8728L1.12716 13.7172C1.28337 13.8734 1.53663 13.8734 1.69284 13.7172L7 8.41L12.3072 13.7172C12.4634 13.8734 12.7166 13.8734 12.8728 13.7172L13.7172 12.8728C13.8734 12.7166 13.8734 12.4634 13.7172 12.3072L8.41 7L13.7172 1.69284Z" fill="#7F7F7F"/>
</svg>
