<svg width="139" height="49" viewBox="0 0 139 49" fill="none" xmlns="http://www.w3.org/2000/svg">
<path d="M31.4415 33.716C32.2591 35.5616 31.6811 36.8506 29.7104 37.5776C27.7396 38.3047 26.4 37.852 25.689 36.2194L15.8884 14.2215L6.08791 36.2194C5.37684 37.852 4.04524 38.3047 2.09313 37.5776C0.141009 36.8506 -0.447555 35.5616 0.335422 33.716L12.4263 6.5515H3.42472C2.11177 6.5515 1.44597 5.65401 1.42733 3.86168C1.40869 2.06936 2.07448 1.17186 3.42472 1.17186H28.3522C29.737 1.17186 30.4215 2.06936 30.4028 3.86168C30.3842 5.65401 29.7024 6.5515 28.3522 6.5515H19.3506L31.4415 33.716ZM41.8812 42.7176C41.8812 44.422 40.8239 45.2743 38.712 45.2743C36.6001 45.2743 35.5428 44.422 35.5428 42.7176V2.55672C35.5428 0.852281 36.6001 6.10352e-05 38.712 6.10352e-05C40.8239 6.10352e-05 41.8812 0.852281 41.8812 2.55672V42.7176Z" fill="black"/>
<path d="M60.63 29.7744C60.63 30.592 60.3903 31.3271 59.9109 31.9849C59.4316 32.6427 58.5527 32.9703 57.2744 32.9703H48.4326C47.0824 32.9703 46.4166 32.0728 46.4352 30.2804C46.4538 28.4881 47.1196 27.5906 48.4326 27.5906H53.8122C54.0599 27.5906 54.2037 27.5374 54.2383 27.4308C54.273 27.3243 54.2916 27.1991 54.2916 27.058V10.4397C54.2916 8.73526 55.3489 7.88304 57.4608 7.88304C59.5727 7.88304 60.63 8.73526 60.63 10.4397V29.7744ZM50.7229 6.55144C49.41 6.55144 48.7442 5.65395 48.7255 3.86162C48.7069 2.0693 49.3727 1.1718 50.7229 1.1718H75.2243C76.6091 1.1718 77.2936 2.0693 77.2749 3.86162C77.2563 5.65395 76.5745 6.55144 75.2243 6.55144H50.7229ZM72.1882 26.5786C72.1882 28.2831 71.1309 29.1353 69.019 29.1353C66.9071 29.1353 65.8498 28.2831 65.8498 26.5786V10.4397C65.8498 8.73526 66.9071 7.88304 69.019 7.88304C71.1309 7.88304 72.1882 8.73526 72.1882 10.4397V26.5786ZM89.9144 33.2552C88.8678 34.1554 87.3231 34.2433 86.2206 33.4097C85.0461 32.5229 83.5121 32.1713 82.3616 32.1713C80.6225 32.1713 79.1391 32.7226 77.9141 33.8225C76.689 34.9224 76.0765 36.2726 76.0765 37.8705C76.0765 39.4684 76.689 40.8187 77.9141 41.9186C79.1391 43.0185 80.6225 43.5698 82.3616 43.5698C84.098 43.5698 85.5761 43.0211 86.8011 41.9266C86.8065 41.9212 86.8118 41.9186 86.8171 41.9132C87.0248 41.7748 91.4124 38.757 95.9401 34.7857C100.414 30.8616 106.512 26.7384 117.103 26.7384C125.018 27.026 127.668 28.4522 130.832 29.4455C134.454 30.5824 135.607 30.6961 137.256 31.7143C138.709 32.612 138.62 36.6079 134.454 35.8998C130.287 35.1916 123.058 31.7143 117.103 31.7143C111.148 31.7143 108.301 31.13 91.3073 45.7243C88.8172 47.8628 85.8744 49 82.3589 49C78.8089 49 75.7995 47.9161 73.3307 45.7509C70.862 43.5857 69.6289 40.9572 69.6289 37.8679C69.6289 34.7786 70.862 32.15 73.3307 29.9848C75.7995 27.8197 78.7705 26.7357 82.3589 26.7357C85.3497 26.7357 87.5841 27.4015 89.4084 28.3736C91.2487 29.3537 91.4937 31.897 89.9144 33.2552ZM86.5162 23.3828C86.5162 25.0872 85.4589 25.9394 83.347 25.9394C81.2351 25.9394 80.1778 25.0872 80.1778 23.3828V2.55666C80.1778 0.85222 81.2351 0 83.347 0C85.4589 0 86.5162 0.85222 86.5162 2.55666V23.3828ZM96.4765 11.9843C96.4765 13.1215 96.077 14.0883 95.2781 14.8872C94.4791 15.6862 93.5124 16.0857 92.3752 16.0857C91.238 16.0857 90.2713 15.6862 89.4723 14.8872C88.6734 14.0883 88.2739 13.1215 88.2739 11.9843C88.2739 10.8472 88.6734 9.88043 89.4723 9.08147C90.2713 8.28251 91.238 7.88304 92.3752 7.88304C93.5124 7.88304 94.4791 8.28251 95.2781 9.08147C96.077 9.88043 96.4765 10.8472 96.4765 11.9843Z" fill="black"/>
<path d="M135.466 20.0272C136.603 21.3401 136.353 22.6185 134.72 23.8622C133.088 25.1059 131.719 25.0686 130.619 23.7556L117.09 7.24387L103.561 23.7556C102.461 25.0686 101.103 25.1059 99.4862 23.8622C97.8697 22.6185 97.614 21.3401 98.7139 20.0272L114.001 1.38485C114.853 0.391485 115.613 1.17377e-06 117.09 0C118.567 -5.86877e-07 119.292 0.391485 120.179 1.38485L135.466 20.0272Z" fill="black"/>
</svg>
