<svg xmlns="http://www.w3.org/2000/svg" width="40" height="40" viewBox="0 0 40 40" fill="none">
<path fill-rule="evenodd" clip-rule="evenodd" d="M14.4933 11.636C16.1276 9.92686 18.2756 9.45007 19.6031 9.45007H20.3969C21.7244 9.45007 23.8724 9.92686 25.5067 11.636C27.1185 13.3215 28.1239 16.0916 27.5078 20.4464L29.8712 22.2381C30.0333 22.361 30.1285 22.5527 30.1285 22.7561V24.7811C30.1285 25.1401 29.8375 25.4311 29.4785 25.4311H24.6504V25.85C24.6504 26.6537 24.3617 27.8042 23.6477 28.7681C22.9131 29.7597 21.7273 30.5499 20.0004 30.5499C18.2734 30.5499 17.0876 29.7597 16.353 28.7681C15.639 27.8042 15.3503 26.6537 15.3504 25.8499L15.3504 25.4311H10.5215C10.1625 25.4311 9.87149 25.1401 9.87149 24.7811V22.7561C9.87149 22.5527 9.96671 22.361 10.1288 22.2381L12.4923 20.4464C11.8761 16.0916 12.8815 13.3215 14.4933 11.636ZM16.6504 25.4311L16.6504 25.85C16.6504 26.3962 16.8617 27.2707 17.3977 27.9943C17.9132 28.6902 18.7273 29.2499 20.0004 29.2499C21.2734 29.2499 22.0875 28.6902 22.6031 27.9943C23.1391 27.2707 23.3504 26.3962 23.3504 25.85V25.4311H16.6504ZM19.6031 10.7501H20.3969C21.4734 10.7501 23.2417 11.1483 24.5672 12.5344C25.8679 13.8947 26.8545 16.3261 26.1656 20.6284C26.1277 20.8654 26.2235 21.1041 26.4148 21.2491L28.8285 23.079V24.1311H11.1715V23.079L13.5852 21.2491C13.7765 21.1041 13.8723 20.8654 13.8344 20.6284C13.1455 16.3261 14.1321 13.8947 15.4329 12.5344C16.7583 11.1483 18.5266 10.7501 19.6031 10.7501Z" fill="#BDBDBD"/>
<circle cx="26.5" cy="12.5" r="2.5" fill="#EB4D3D"/>
</svg>