<svg xmlns="http://www.w3.org/2000/svg" width="40" height="40" viewBox="0 0 40 40" fill="none">
<path d="M26.2857 10.5714V28.4464L20.7071 25.6257L20.313 25.4287C20.116 25.3301 19.884 25.3301 19.6869 25.4287L19.2929 25.6257L13.7143 28.4464V10.5714H26.2857ZM26.2857 9H13.7143C13.2975 9 12.8978 9.16556 12.6031 9.46026C12.3084 9.75496 12.1429 10.1547 12.1429 10.5714V29.8674C12.1429 30.3877 12.6905 30.7262 13.1559 30.4935L20 27.0714L26.8441 30.4935C27.3095 30.7262 27.8571 30.3877 27.8571 29.8674V10.5714C27.8571 10.1547 27.6916 9.75496 27.3969 9.46026C27.1022 9.16556 26.7025 9 26.2857 9Z" fill="#000"/>
</svg>