<svg xmlns="http://www.w3.org/2000/svg" width="40" height="40" viewBox="0 0 40 40" fill="none">
<path d="M29.875 12.6875H14.25C13.3125 12.6875 12.6875 13.3125 12.6875 14.25V25.1875C12.6875 26.125 13.3125 26.75 14.25 26.75H19.7188C20.1502 26.75 20.5 26.4002 20.5 25.9688C20.5 25.5373 20.1502 25.1875 19.7188 25.1875H14.25V14.25H29.875V25.1875H24.7682C24.4432 25.1875 24.1386 25.3454 23.9512 25.6108L20.9367 29.8814C20.6935 30.2259 20.7684 30.7013 21.1057 30.9543C21.4581 31.2186 21.9592 31.1386 22.2118 30.7778L24.7327 27.1765C24.9198 26.9092 25.2256 26.75 25.5519 26.75H29.875C30.8125 26.75 31.4375 26.125 31.4375 25.1875V14.25C31.4375 13.3125 30.8125 12.6875 29.875 12.6875Z" fill="black"/>
<path d="M10.125 20.2812C10.125 20.7127 9.77522 21.0625 9.34375 21.0625C8.91228 21.0625 8.5625 20.7127 8.5625 20.2812V10.9062C8.5625 9.57812 9.57812 8.5625 10.9062 8.5625H20.2812C20.7127 8.5625 21.0625 8.91228 21.0625 9.34375C21.0625 9.77522 20.7127 10.125 20.2812 10.125H10.9062C10.4375 10.125 10.125 10.4375 10.125 10.9062V20.2812Z" fill="black"/>
</svg>