<svg xmlns="http://www.w3.org/2000/svg" width="40" height="40" viewBox="0 0 40 40" fill="none">
<path fill-rule="evenodd" clip-rule="evenodd" d="M11.9998 31.0353H28.0002C28.9667 31.0353 29.7502 30.2518 29.7502 29.2853V18.4521L31.4899 19.7853C31.5776 19.8525 31.7032 19.8359 31.7703 19.7482L32.5002 18.7957C32.5674 18.708 32.5508 18.5825 32.4631 18.5153L20.1217 9.05794C20.0499 9.00294 19.9501 9.00294 19.8784 9.05794L7.53686 18.5153C7.44919 18.5825 7.43258 18.708 7.49976 18.7957L8.22966 19.7482C8.29685 19.8359 8.42238 19.8525 8.51006 19.7853L10.2498 18.4521V29.2853C10.2498 30.2518 11.0333 31.0353 11.9998 31.0353ZM20.1217 11.0737C20.0499 11.0187 19.9501 11.0187 19.8784 11.0737L11.7498 17.3026V29.2853C11.7498 29.4234 11.8618 29.5353 11.9998 29.5353H16.114V24.7853C16.114 23.874 16.8528 23.1353 17.764 23.1353H22.2402C23.1515 23.1353 23.8902 23.874 23.8902 24.7853V29.5353H28.0002C28.1383 29.5353 28.2502 29.4234 28.2502 29.2853V17.3026L20.1217 11.0737ZM17.764 24.4353C17.5707 24.4353 17.414 24.592 17.414 24.7853V29.5353H22.5902V24.7853C22.5902 24.592 22.4335 24.4353 22.2402 24.4353H17.764Z" fill="#000"/>
</svg>