<svg width="28" height="28" viewBox="0 0 28 28" fill="none" xmlns="http://www.w3.org/2000/svg">
<rect width="28" height="28" rx="4.66667" fill="#FEE500"/>
<path d="M13.9953 8.16675C10.4458 8.16675 7.58325 10.419 7.58325 13.1532C7.58325 14.928 8.77407 16.4821 10.5603 17.3695L9.95572 19.5902C9.94433 19.6235 9.94257 19.6592 9.95066 19.6934C9.95875 19.7276 9.97636 19.759 10.0015 19.7839C10.0382 19.8157 10.0854 19.8333 10.1343 19.8334C10.1749 19.8302 10.2134 19.8145 10.2443 19.7884L12.8457 18.0632C13.2298 18.1153 13.6169 18.1424 14.0045 18.1442C17.5495 18.1442 20.4166 15.892 20.4166 13.1532C20.4166 10.4145 17.5403 8.16675 13.9953 8.16675Z" fill="#392020"/>
</svg>
