<svg width="18" height="22" viewBox="0 0 18 22" fill="none" xmlns="http://www.w3.org/2000/svg">
<path d="M12.2617 3.51773C12.9469 2.69504 13.4322 1.57447 13.4322 0.439717C13.4322 0.283688 13.4179 0.12766 13.3894 0C12.276 0.0425532 10.9342 0.737589 10.1348 1.67376C9.50674 2.38298 8.92149 3.51773 8.92149 4.65248C8.92149 4.82269 8.95004 4.99291 8.96431 5.04965C9.03569 5.06383 9.14988 5.07801 9.26408 5.07801C10.2633 5.07801 11.5194 4.41135 12.2617 3.51773ZM13.0468 5.31915C11.3767 5.31915 10.0206 6.32624 9.14988 6.32624C8.22205 6.32624 7.00872 5.37589 5.55274 5.37589C2.79778 5.37589 0 7.64539 0 11.9149C0 14.5816 1.02776 17.3901 2.31245 19.2057C3.41158 20.7376 4.36796 22 5.75258 22C7.12292 22 7.72244 21.0922 9.42109 21.0922C11.1483 21.0922 11.5337 21.9716 13.0468 21.9716C14.5456 21.9716 15.5448 20.6099 16.4869 19.2624C17.5432 17.7163 17.9857 16.2128 18 16.1418C17.9144 16.1135 15.0452 14.9504 15.0452 11.6879C15.0452 8.86525 17.3006 7.60284 17.429 7.50355C15.9445 5.37589 13.6749 5.31915 13.0468 5.31915Z" fill="white"/>
</svg>
