<svg width="24" height="24" viewBox="0 0 24 24" fill="none" xmlns="http://www.w3.org/2000/svg">
<path d="M23.7172 23.0275C23.8734 22.8713 23.8734 22.618 23.7172 22.4618L17.2958 16.0404C18.9068 14.1064 19.7101 11.6258 19.5387 9.11452C19.3672 6.60328 18.2342 4.25481 16.3754 2.55765C14.5165 0.860492 12.0749 -0.0546872 9.55849 0.00249653C7.04206 0.0596802 4.64455 1.08482 2.8647 2.86467C1.08485 4.64452 0.0597108 7.04203 0.00252705 9.55846C-0.0546567 12.0749 0.860522 14.5165 2.55768 16.3754C4.25484 18.2342 6.60331 19.3672 9.11455 19.5386C11.6258 19.7101 14.1064 18.9067 16.0405 17.2958L22.4618 23.7171C22.618 23.8733 22.8713 23.8733 23.0275 23.7171L23.7172 23.0275ZM1.80687 9.79637C1.80687 8.21619 2.27545 6.67149 3.15335 5.35762C4.03125 4.04375 5.27904 3.01971 6.73894 2.41501C8.19883 1.8103 9.80526 1.65208 11.3551 1.96036C12.9049 2.26863 14.3285 3.02956 15.4458 4.14692C16.5632 5.26427 17.3241 6.68787 17.6324 8.23769C17.9407 9.7875 17.7825 11.3939 17.1778 12.8538C16.573 14.3137 15.549 15.5615 14.2351 16.4394C12.9213 17.3173 11.3766 17.7859 9.7964 17.7859C7.67816 17.7835 5.64736 16.941 4.14954 15.4432C2.65172 13.9454 1.80922 11.9146 1.80687 9.79637Z" fill="#000"/>
</svg>
