<svg width="20" height="20" viewBox="0 0 20 20" fill="none" xmlns="http://www.w3.org/2000/svg">
<g opacity="0.8">
<rect width="20" height="20" fill="none" style="mix-blend-mode:multiply"/>
<path d="M14.375 12.5C13.9072 12.5024 13.4458 12.6097 13.025 12.8142C12.6042 13.0186 12.2347 13.315 11.9437 13.6813L7.37499 10.825C7.5415 10.2876 7.5415 9.71243 7.37499 9.17504L11.9437 6.31879C12.4075 6.89298 13.0594 7.28452 13.7842 7.42404C14.509 7.56356 15.2597 7.44206 15.9034 7.08105C16.5472 6.72005 17.0424 6.14284 17.3013 5.45169C17.5602 4.76054 17.5662 4.00005 17.3181 3.30493C17.07 2.60982 16.5839 2.02495 15.9458 1.65393C15.3078 1.28291 14.5591 1.14969 13.8322 1.27787C13.1054 1.40605 12.4473 1.78735 11.9747 2.35424C11.5021 2.92112 11.2454 3.63699 11.25 4.37504C11.2529 4.65452 11.295 4.93222 11.375 5.20004L6.80624 8.05629C6.4029 7.54852 5.85158 7.17882 5.22871 6.99841C4.60585 6.818 3.94228 6.83583 3.33 7.04942C2.71772 7.26301 2.18705 7.66179 1.81155 8.19048C1.43605 8.71916 1.23431 9.35157 1.23431 10C1.23431 10.6485 1.43605 11.2809 1.81155 11.8096C2.18705 12.3383 2.71772 12.7371 3.33 12.9507C3.94228 13.1642 4.60585 13.1821 5.22871 13.0017C5.85158 12.8213 6.4029 12.4515 6.80624 11.9438L11.375 14.8C11.295 15.0679 11.2529 15.3455 11.25 15.625C11.25 16.2431 11.4333 16.8473 11.7767 17.3612C12.12 17.8751 12.6081 18.2756 13.1791 18.5122C13.7501 18.7487 14.3785 18.8106 14.9847 18.69C15.5908 18.5694 16.1477 18.2718 16.5847 17.8347C17.0217 17.3977 17.3194 16.8409 17.4399 16.2347C17.5605 15.6285 17.4986 15.0002 17.2621 14.4291C17.0256 13.8581 16.6251 13.3701 16.1112 13.0267C15.5972 12.6833 14.9931 12.5 14.375 12.5ZM14.375 2.50004C14.7458 2.50004 15.1083 2.61 15.4167 2.81603C15.725 3.02206 15.9654 3.31489 16.1073 3.6575C16.2492 4.00012 16.2863 4.37712 16.214 4.74083C16.1416 5.10454 15.963 5.43864 15.7008 5.70086C15.4386 5.96309 15.1045 6.14166 14.7408 6.21401C14.3771 6.28636 14.0001 6.24922 13.6575 6.10731C13.3149 5.9654 13.022 5.72507 12.816 5.41673C12.61 5.10839 12.5 4.74588 12.5 4.37504C12.5 3.87776 12.6975 3.40084 13.0492 3.04921C13.4008 2.69758 13.8777 2.50004 14.375 2.50004ZM4.37499 11.875C4.00415 11.875 3.64164 11.7651 3.3333 11.559C3.02496 11.353 2.78463 11.0602 2.64272 10.7176C2.5008 10.375 2.46367 9.99796 2.53602 9.63424C2.60837 9.27053 2.78694 8.93643 3.04917 8.67421C3.31139 8.41199 3.64548 8.23341 4.0092 8.16106C4.37291 8.08872 4.74991 8.12585 5.09252 8.26776C5.43514 8.40968 5.72797 8.65 5.934 8.95834C6.14003 9.26668 6.24999 9.6292 6.24999 10C6.24999 10.4973 6.05245 10.9742 5.70082 11.3259C5.34919 11.6775 4.87227 11.875 4.37499 11.875ZM14.375 17.5C14.0042 17.5 13.6416 17.3901 13.3333 17.184C13.025 16.978 12.7846 16.6852 12.6427 16.3426C12.5008 16 12.4637 15.623 12.536 15.2592C12.6084 14.8955 12.7869 14.5614 13.0492 14.2992C13.3114 14.037 13.6455 13.8584 14.0092 13.7861C14.3729 13.7137 14.7499 13.7508 15.0925 13.8928C15.4351 14.0347 15.728 14.275 15.934 14.5833C16.14 14.8917 16.25 15.2542 16.25 15.625C16.25 16.1223 16.0524 16.5992 15.7008 16.9509C15.3492 17.3025 14.8723 17.5 14.375 17.5Z" fill="#000"/>
</g>
</svg>
