<svg xmlns="http://www.w3.org/2000/svg" width="40" height="40" viewBox="0 0 40 40" fill="none">
<path fill-rule="evenodd" clip-rule="evenodd" d="M20 8.48474C16.852 8.48474 14.3 11.0367 14.3 14.1847C14.3 17.3328 16.852 19.8847 20 19.8847C23.148 19.8847 25.7 17.3328 25.7 14.1847C25.7 11.0367 23.148 8.48474 20 8.48474ZM15.7 14.1847C15.7 11.8099 17.6252 9.88474 20 9.88474C22.3748 9.88474 24.3 11.8099 24.3 14.1847C24.3 16.5596 22.3748 18.4847 20 18.4847C17.6252 18.4847 15.7 16.5596 15.7 14.1847Z" fill="#000"/>
<path d="M13.3557 27.0625C13.2508 28.1119 13.25 29.3333 13.25 30.7652C13.25 31.1794 12.9142 31.5152 12.5 31.5152C12.0858 31.5152 11.75 31.1794 11.75 30.7652V30.737C11.75 29.3383 11.75 28.0449 11.8631 26.9133C11.977 25.7736 12.2112 24.7238 12.7275 23.8404C13.8121 21.9844 15.9271 21.1847 19.5 21.1847H20.5C24.0729 21.1847 26.1879 21.9844 27.2725 23.8404C27.7888 24.7238 28.023 25.7736 28.1369 26.9133C28.25 28.0449 28.25 29.3383 28.25 30.737V30.7652C28.25 31.1794 27.9142 31.5152 27.5 31.5152C27.0858 31.5152 26.75 31.1794 26.75 30.7652C26.75 29.3333 26.7492 28.1119 26.6443 27.0625C26.5395 26.0138 26.3362 25.2112 25.9775 24.5973C25.3121 23.4588 23.9271 22.6847 20.5 22.6847H19.5C16.0729 22.6847 14.6879 23.4588 14.0225 24.5973C13.6638 25.2112 13.4605 26.0138 13.3557 27.0625Z" fill="#000"/>
</svg>