<svg xmlns="http://www.w3.org/2000/svg" width="44" height="44" viewBox="0 0 44 44" fill="none">
<path d="M28.7172 16.6928C28.8734 16.5366 28.8734 16.2834 28.7172 16.1272L27.8728 15.2828C27.7166 15.1266 27.4634 15.1266 27.3072 15.2828L22 20.59L16.6928 15.2828C16.5366 15.1266 16.2834 15.1266 16.1272 15.2828L15.2828 16.1272C15.1266 16.2834 15.1266 16.5366 15.2828 16.6928L20.59 22L15.2828 27.3072C15.1266 27.4634 15.1266 27.7166 15.2828 27.8728L16.1272 28.7172C16.2834 28.8734 16.5366 28.8734 16.6928 28.7172L22 23.41L27.3072 28.7172C27.4634 28.8734 27.7166 28.8734 27.8728 28.7172L28.7172 27.8728C28.8734 27.7166 28.8734 27.4634 28.7172 27.3072L23.41 22L28.7172 16.6928Z" fill="#7F7F7F"/>
</svg>